<svg width="100" height="100" viewBox="0 0 100 100" fill="none" xmlns="http://www.w3.org/2000/svg">
<path d="M66.9492 43.2542H34.4068C32.909 43.2542 31.6949 44.4684 31.6949 45.966V74.7416C31.6949 75.4201 31.9492 76.074 32.4078 76.5742L45.6941 91.0682C46.2778 91.705 47.1021 92.0677 47.9661 92.0677H53.3899C54.2539 92.0677 55.0782 91.705 55.6621 91.0682L68.9483 76.5742C69.4068 76.074 69.6612 75.4201 69.6612 74.7416V45.966C69.661 44.4684 68.447 43.2542 66.9492 43.2542Z" fill="#E64178"/>
<path d="M64.2373 74.7416V45.966C64.2373 44.4682 63.0233 43.2542 61.5255 43.2542H34.4068C32.909 43.2542 31.6949 44.4682 31.6949 45.966V74.7416C31.6949 75.4201 31.9494 76.074 32.4078 76.5742L45.6941 91.0682C46.2778 91.7052 47.1021 92.0677 47.9661 92.0677C48.8302 92.0677 49.6544 91.7052 50.2383 91.0682L63.5246 76.5742C63.9829 76.074 64.2373 75.4201 64.2373 74.7416Z" fill="#FF6E91"/>
<path d="M39.8305 58.1695C36.8399 58.1695 34.4068 55.7364 34.4068 52.7458C34.4068 49.7551 36.8399 47.322 39.8305 47.322C42.8212 47.322 45.2543 49.7551 45.2543 52.7458C45.2543 55.7364 42.8212 58.1695 39.8305 58.1695ZM39.8305 50.0339C38.3353 50.0339 37.1187 51.2505 37.1187 52.7458C37.1187 54.241 38.3353 55.4576 39.8305 55.4576C41.3258 55.4576 42.5424 54.241 42.5424 52.7458C42.5424 51.2505 41.3258 50.0339 39.8305 50.0339Z" fill="#D7E6F0"/>
<path d="M56.1017 69.0169C53.111 69.0169 50.678 66.5838 50.678 63.5932C50.678 60.6025 53.111 58.1694 56.1017 58.1694C59.0924 58.1694 61.5254 60.6025 61.5254 63.5932C61.5254 66.5838 59.0924 69.0169 56.1017 69.0169ZM56.1017 60.8813C54.6065 60.8813 53.3898 62.0979 53.3898 63.5932C53.3898 65.0884 54.6065 66.305 56.1017 66.305C57.597 66.305 58.8136 65.0884 58.8136 63.5932C58.8136 62.0979 57.597 60.8813 56.1017 60.8813Z" fill="#D7E6F0"/>
<path d="M39.8305 67.6611C39.4835 67.6611 39.1364 67.5287 38.8717 67.264C38.342 66.7345 38.342 65.876 38.8717 65.3465L55.1429 49.0753C55.6725 48.5458 56.5308 48.5458 57.0605 49.0753C57.59 49.6048 57.59 50.4633 57.0605 50.9928L40.7893 67.264C40.5246 67.5287 40.1774 67.6611 39.8305 67.6611Z" fill="#D7E6F0"/>
<path d="M66.9492 37.8306H34.4068C32.909 37.8306 31.6949 39.0446 31.6949 40.5424C31.6949 42.0402 32.909 43.2543 34.4068 43.2543H66.9492C68.447 43.2543 69.661 42.0402 69.661 40.5424C69.661 39.0446 68.447 37.8306 66.9492 37.8306Z" fill="#FFD241"/>
<path d="M60.1694 24.2711L50.6779 14.7795L41.1863 24.2711L31.6948 14.7795V32.4067C31.6948 33.9045 32.9089 35.1185 34.4067 35.1185H66.9491C68.4469 35.1185 69.6609 33.9045 69.6609 32.4067V14.7795L60.1694 24.2711Z" fill="#FFD241"/>
<path d="M60.1695 24.2711L50.678 14.7795V35.1185H66.9492C68.447 35.1185 69.661 33.9043 69.661 32.4067V14.7795L60.1695 24.2711Z" fill="#FAA037"/>
<path d="M69.661 40.5424C69.661 42.0402 68.447 43.2543 66.9492 43.2543H50.678V37.8306H66.9492C68.447 37.8306 69.661 39.0446 69.661 40.5424Z" fill="#FAA037"/>
<path d="M34.4068 35.1187H50.678V37.8305H34.4068V35.1187Z" fill="#FAA037"/>
<path d="M50.678 35.1187H66.9492V37.8305H50.678V35.1187Z" fill="#F57328"/>
<path d="M50.6594 16.1356C52.9059 16.1356 54.7271 14.3144 54.7271 12.0678C54.7271 9.82121 52.9059 8 50.6594 8C48.4128 8 46.5916 9.82121 46.5916 12.0678C46.5916 14.3144 48.4128 16.1356 50.6594 16.1356Z" fill="#FAA037"/>
<path d="M69.661 16.1356C71.9076 16.1356 73.7288 14.3144 73.7288 12.0678C73.7288 9.82121 71.9076 8 69.661 8C67.4144 8 65.5932 9.82121 65.5932 12.0678C65.5932 14.3144 67.4144 16.1356 69.661 16.1356Z" fill="#FAA037"/>
<path d="M31.6949 16.1356C33.9415 16.1356 35.7627 14.3144 35.7627 12.0678C35.7627 9.82121 33.9415 8 31.6949 8C29.4484 8 27.6271 9.82121 27.6271 12.0678C27.6271 14.3144 29.4484 16.1356 31.6949 16.1356Z" fill="#FAA037"/>
<path d="M31.6949 12.5197C32.6934 12.5197 33.5029 11.7103 33.5029 10.7118C33.5029 9.71326 32.6934 8.90381 31.6949 8.90381C30.6964 8.90381 29.887 9.71326 29.887 10.7118C29.887 11.7103 30.6964 12.5197 31.6949 12.5197Z" fill="#FFD241"/>
<path d="M50.6781 12.5197C51.6766 12.5197 52.486 11.7103 52.486 10.7118C52.486 9.71326 51.6766 8.90381 50.6781 8.90381C49.6796 8.90381 48.8701 9.71326 48.8701 10.7118C48.8701 11.7103 49.6796 12.5197 50.6781 12.5197Z" fill="#FFD241"/>
<path d="M69.661 12.5197C70.6595 12.5197 71.469 11.7103 71.469 10.7118C71.469 9.71326 70.6595 8.90381 69.661 8.90381C68.6625 8.90381 67.853 9.71326 67.853 10.7118C67.853 11.7103 68.6625 12.5197 69.661 12.5197Z" fill="#FFD241"/>
<path d="M48.7604 20.7651L45.8158 23.7096C44.7568 24.7686 44.7568 26.4857 45.8158 27.5447L48.7604 30.4893C49.8193 31.5483 51.5365 31.5483 52.5954 30.4893L55.54 27.5447C56.599 26.4857 56.599 24.7686 55.54 23.7096L52.5954 20.7651C51.5365 19.7059 49.8195 19.7059 48.7604 20.7651Z" fill="#00D2D2"/>
<path d="M55.54 23.7095L52.5954 20.7649C52.0659 20.2354 51.3719 19.9707 50.6778 19.9707V31.2834C51.3719 31.2834 52.0658 31.0187 52.5954 30.4892L55.54 27.5446C56.5992 26.4856 56.5992 24.7687 55.54 23.7095Z" fill="#289BC3"/>
<path d="M47.9661 88.0001C49.963 88.0001 51.5819 86.3812 51.5819 84.3843C51.5819 82.3874 49.963 80.7686 47.9661 80.7686C45.9692 80.7686 44.3503 82.3874 44.3503 84.3843C44.3503 86.3812 45.9692 88.0001 47.9661 88.0001Z" fill="#E64178"/>
<path d="M83.2204 47.3221H79.1526V42.5764C79.1526 41.4532 80.0633 40.5425 81.1865 40.5425C82.3097 40.5425 83.2204 41.4532 83.2204 42.5764V47.3221Z" fill="#FAA037"/>
<path d="M81.1865 58.1696C80.0633 58.1696 79.1526 57.2589 79.1526 56.1357V51.3899H83.2204V56.1357C83.2204 57.2589 82.3097 58.1696 81.1865 58.1696Z" fill="#FAA037"/>
<path d="M79.1525 47.3223V51.3901H74.4067C73.2835 51.3901 72.3728 50.4794 72.3728 49.3562C72.3728 48.2329 73.2835 47.3223 74.4067 47.3223H79.1525Z" fill="#FAA037"/>
<path d="M89.9999 49.3562C89.9999 50.4794 89.0892 51.3901 87.966 51.3901H83.2202V47.3223H87.966C89.0892 47.3223 89.9999 48.2328 89.9999 49.3562Z" fill="#FAA037"/>
<path d="M20.8473 25.6271H16.7795V20.8813C16.7795 19.7581 17.6902 18.8474 18.8134 18.8474C19.9367 18.8474 20.8473 19.7581 20.8473 20.8813V25.6271Z" fill="#FAA037"/>
<path d="M18.8134 36.4745C17.6902 36.4745 16.7795 35.5638 16.7795 34.4406V29.6948H20.8473V34.4406C20.8473 35.5638 19.9367 36.4745 18.8134 36.4745Z" fill="#FAA037"/>
<path d="M16.7797 25.627V29.6947H12.0339C10.9107 29.6947 10 28.7841 10 27.6609C10 26.5376 10.9107 25.627 12.0339 25.627H16.7797Z" fill="#FAA037"/>
<path d="M27.6271 27.6609C27.6271 28.7841 26.7164 29.6947 25.5932 29.6947H20.8474V25.627H25.5932C26.7164 25.627 27.6271 26.5375 27.6271 27.6609Z" fill="#FAA037"/>
<path d="M28.9831 73.0848H24.9153V68.3391C24.9153 67.2159 25.826 66.3052 26.9492 66.3052C28.0724 66.3052 28.9831 67.2159 28.9831 68.3391V73.0848Z" fill="#FAA037"/>
<path d="M26.9492 83.9322C25.826 83.9322 24.9153 83.0216 24.9153 81.8984V77.1526H28.9831V81.8984C28.9831 83.0216 28.0724 83.9322 26.9492 83.9322Z" fill="#FAA037"/>
<path d="M24.9153 73.085V77.1528H20.1695C19.0463 77.1528 18.1356 76.2421 18.1356 75.1189C18.1356 73.9956 19.0463 73.085 20.1695 73.085H24.9153Z" fill="#FAA037"/>
<path d="M35.7627 75.1189C35.7627 76.2421 34.852 77.1528 33.7288 77.1528H28.983V73.085H33.7288C34.852 73.085 35.7627 73.9955 35.7627 75.1189Z" fill="#FAA037"/>
</svg>
