<svg width="100" height="100" viewBox="0 0 100 100" fill="none" xmlns="http://www.w3.org/2000/svg">
<path d="M74.9347 9H25.0456C16.7439 9 10 15.7489 10 24.1009V56.9549C10 65.2871 16.7242 72.0558 25.0456 72.0558H32.2036C32.5388 72.0558 32.8149 72.3329 32.8149 72.6694V88.8786C32.8149 90.7984 35.1417 91.7286 36.4629 90.3234L53.4015 72.2537C53.5198 72.135 53.6776 72.0558 53.8551 72.0558H74.9544C83.2561 72.0558 90 65.3069 90 56.9549V24.1009C89.9803 15.7489 83.2561 9 74.9347 9Z" fill="#EC559B"/>
<path d="M39.1447 66.3956C39.1447 66.0393 38.8686 65.7425 38.5531 65.7425H31.612C23.5667 65.7425 17.0594 58.6175 17.0594 49.8498V15.2542C17.0594 13.7699 17.2369 12.3251 17.5918 10.9595C13.0564 13.5522 10 18.4605 10 24.0813V56.9352C10 65.2675 16.7242 72.0362 25.0456 72.0362H32.2036C32.5388 72.0362 32.8149 72.3132 32.8149 72.6497V88.859C32.8149 90.7787 35.1417 91.709 36.4629 90.3037L39.1447 87.434V66.3956Z" fill="#E6398A"/>
<path d="M66.8894 28.5938C63.0639 24.7542 56.8722 24.7542 53.0664 28.5938L50.917 30.7511C50.4043 31.2656 49.5761 31.2656 49.0634 30.7511L46.9141 28.6136C43.0886 24.774 36.8968 24.774 33.091 28.6136C29.2656 32.4531 29.2656 38.6677 33.091 42.4874L49.0437 58.4988C49.5564 59.0134 50.3846 59.0134 50.8973 58.4988L66.8697 42.4479C70.6952 38.6281 70.6952 32.4135 66.8894 28.5938Z" fill="#EC559B"/>
<path d="M66.8894 28.5938C63.0639 24.7542 56.8722 24.7542 53.0664 28.5938L50.917 30.7511C50.4043 31.2656 49.5761 31.2656 49.0634 30.7511L46.9141 28.6136C43.0886 24.774 36.8968 24.774 33.091 28.6136C29.2656 32.4531 29.2656 38.6677 33.091 42.4874L49.0437 58.4988C49.5564 59.0134 50.3846 59.0134 50.8973 58.4988L66.8697 42.4479C70.6952 38.6281 70.6952 32.4135 66.8894 28.5938Z" fill="#FFF5F8"/>
<path d="M38.1983 42.4874C34.3728 38.6478 34.3728 32.4333 38.1983 28.6135C39.4603 27.3468 40.9589 26.5156 42.5562 26.0802C39.2828 25.1896 35.6545 26.0406 33.091 28.6135C29.2656 32.4531 29.2656 38.6676 33.091 42.4874L49.0437 58.4987C49.5564 59.0133 50.3846 59.0133 50.8973 58.4987L52.5143 56.8758L38.1983 42.4874Z" fill="#DCEBEB"/>
</svg>
