<svg width="198" height="60" viewBox="0 0 198 60" fill="none" xmlns="http://www.w3.org/2000/svg">
<path opacity="0.8" d="M24.8288 31.3354C24.8637 31.3702 24.8637 31.4051 24.8985 31.4399L24.8288 31.3354ZM43.2247 30.9521C44.0957 32.5896 44.7577 34.4362 44.7577 36.2827C44.8273 38.199 44.0957 40.0107 42.7718 41.3695C41.3781 42.7631 39.5664 43.3902 37.6502 43.5296C37.1973 43.5644 36.7095 43.5644 36.2566 43.5296C35.7339 43.4599 35.2462 43.3554 34.7236 43.1812C33.748 42.8328 32.9119 42.3102 32.3544 41.4043C32.2847 41.2998 32.2847 41.1256 32.3893 41.0211L32.1802 40.9165C32.0757 40.8469 31.9363 40.812 31.797 40.7075L31.5531 40.9165C30.6472 41.5785 29.6717 42.1011 28.6265 42.5192C27.6858 42.9025 26.7102 43.216 25.6999 43.3902C23.5049 43.8432 21.2751 43.878 19.0801 43.4947C16.92 43.1115 14.8993 42.2405 13.1921 40.9165C11.5546 39.6623 10.2655 37.8157 9.91706 35.7601C9.84738 35.4814 10.2306 35.3072 10.37 35.5511C10.6139 36.0389 10.9274 36.4918 11.241 36.9447C11.5546 37.328 11.9727 37.7112 12.3559 38.0596C12.7043 38.408 13.1224 38.7216 13.5405 39.0003C13.9934 39.3139 14.4812 39.5926 14.9689 39.8365C15.1083 39.9062 15.2477 39.9758 15.3522 40.0455L15.5612 40.15L16.1535 40.3591L16.2581 40.4288C20.4389 40.8817 22.9474 40.8817 25.6999 40.0804C31.7273 38.2338 34.619 34.4013 34.7584 31.858C34.9326 28.4784 33.3996 26.8409 32.2499 26.1093L31.9015 26.0396C31.3789 25.9699 30.8563 25.9699 30.3337 25.9699C29.8459 25.9699 29.3581 26.0396 28.9052 26.179C28.6265 26.2486 28.3477 26.3183 28.1039 26.388L27.8948 26.4577L27.8251 26.4925C27.7555 26.5274 27.6161 26.5622 27.5464 26.6319C27.3025 26.7364 27.0586 26.8758 26.8148 27.05C26.7102 27.1197 26.6057 27.1893 26.5012 27.259L26.4663 27.2939L26.3967 27.3635C26.1876 27.5377 26.0134 27.6771 25.8392 27.8862C25.7695 27.9558 25.665 28.0604 25.6302 28.1649L25.5953 28.1997L25.5605 28.2694C25.4211 28.4784 25.2818 28.6875 25.1772 28.8965C25.1424 29.0011 25.1076 29.1056 25.0379 29.2101L25.003 29.2798C24.8637 29.6979 24.7243 30.1508 24.6895 30.6037C24.6895 30.6734 24.6895 30.7082 24.6895 30.7779C24.7243 30.8128 24.7243 30.9173 24.7243 31.0566C24.7243 31.0915 24.7243 31.1263 24.7592 31.1263C24.794 31.196 24.8288 31.3354 24.8288 31.4051L24.794 31.3702C24.794 31.4051 24.8288 31.4051 24.8288 31.4399C24.8637 31.5096 24.8985 31.5444 24.8637 31.5096V31.5444C24.9334 31.6489 24.9682 31.7535 25.0379 31.858C25.1076 31.9625 25.1424 31.9973 25.1772 32.067L25.2818 32.2064C25.3514 32.2761 25.456 32.3806 25.5257 32.4154L25.5953 32.4851C25.6999 32.5548 25.8044 32.6245 25.9089 32.6942L26.0134 32.7638L26.0831 32.7987C26.2225 32.8684 26.327 32.8684 26.4663 32.9032L26.6754 32.9729C26.8496 33.0077 26.7799 33.0077 26.7451 33.0077C26.989 33.0426 27.2328 33.0426 27.4767 33.0077H27.5812L27.6509 32.9729C27.7555 32.938 27.86 32.9032 27.9645 32.9032L28.1387 32.8335L28.2084 32.7987L28.3477 32.729C28.4174 32.6593 28.5568 32.6245 28.6265 32.5548L28.7658 32.4851L28.8355 32.4154C28.9749 32.3109 29.0794 32.2064 29.1839 32.1019C29.2536 32.0322 29.3233 31.9277 29.393 31.8928L29.4278 31.858L29.4975 31.7883C29.602 31.6141 29.7065 31.4399 29.811 31.2657L29.8807 31.1612V31.1263C29.9156 31.0218 29.9504 30.9173 29.9852 30.8128C30.0201 30.7082 30.0549 30.6037 30.0549 30.4992C30.0549 30.4295 30.1246 30.1856 30.0898 30.325C30.1595 29.9417 30.1595 29.5585 30.0898 29.1753C30.0201 28.8617 30.264 28.583 30.5427 28.5481C30.7517 28.5133 30.9259 28.6178 31.0653 28.7572C31.3092 29.1753 31.5182 29.6282 31.5879 30.1508C31.7273 31.196 31.4834 32.2412 30.9259 33.1471C30.3337 34.1226 29.4626 34.8543 28.3826 35.2375C25.8044 36.2131 22.5642 34.4362 22.0764 31.7186C21.6235 29.1753 23.1565 26.6667 25.3514 25.517C25.5605 25.4473 25.6999 25.3079 25.9089 25.2383C23.5049 20.3954 16.8155 20.6741 13.3663 23.9492C9.91706 27.0848 12.1817 33.0426 12.1817 33.0426C12.3211 33.2864 12.2514 33.6 11.9727 33.7394C11.7985 33.8091 11.6591 33.8091 11.4849 33.7394C10.9274 33.4258 10.4397 33.0077 9.98674 32.5896C8.45375 32.7638 5.59683 33.4955 5.80587 37.0841C6.01491 40.4288 9.39445 41.2301 11.3107 41.4043H11.45C11.8333 41.3346 12.2165 41.3346 12.5998 41.3346C12.6695 41.3695 12.6695 41.4043 12.6695 41.4391C12.6695 41.4391 12.6695 41.4392 12.6695 41.474C12.3559 41.8921 11.9378 42.1708 11.45 42.345C10.9274 42.5541 10.4048 42.7283 9.88222 42.8328C8.76732 43.0767 7.58274 43.0418 6.46784 42.7631C2.7399 41.9618 -0.291237 38.3035 0.0223282 34.4013C0.161691 32.4503 0.997865 30.6386 2.35665 29.2101C3.92448 27.6423 6.04975 27.05 8.20987 26.8409C8.24471 26.2835 8.27955 25.726 8.38407 25.2034C9.32477 19.385 15.178 15.4829 20.7525 15.3087C23.5397 15.239 26.2573 15.9707 28.6265 17.4688C29.7414 18.2005 30.7866 19.1063 31.5879 20.1864C32.0408 20.709 32.4241 21.3013 32.7725 21.8936C32.9467 22.2071 33.0861 22.4859 33.2254 22.8343C33.3299 23.1478 33.4345 23.4266 33.4345 23.7401C33.4693 23.9143 33.2603 24.0537 33.1557 23.9143L33.0861 23.775L33.1209 23.8446L33.2254 24.0537L33.2603 24.1234L33.3299 24.2627L33.3996 24.3324L33.4345 24.4021C35.4901 24.7157 37.476 25.4822 39.1832 26.597C40.8904 27.712 42.284 29.2101 43.2247 30.9521ZM28.1387 32.729C28.2084 32.729 28.2084 32.6942 28.2432 32.6593L28.1387 32.729ZM24.6895 30.8824C24.6546 30.7779 24.6546 30.8128 24.6895 30.8824V30.8824ZM25.0727 29.0359L25.0379 29.1056C25.1076 29.0011 25.1424 28.8617 25.0727 29.0359ZM17.791 13.1834C17.8259 13.2183 17.8607 13.2183 17.8607 13.2183C17.8607 13.2183 17.8956 13.2183 17.8956 13.1834C17.9304 13.0441 18.0001 12.9047 18.0349 12.7653C18.0698 12.626 18.0698 12.4518 18.1046 12.3124C18.1743 11.9988 18.2788 11.6504 18.3833 11.3369C18.5924 10.7446 18.9756 10.222 19.4285 9.80388C20.0208 9.35095 20.6828 9.03739 21.4493 9.00255C21.6235 9.42063 21.7629 9.87356 21.8674 10.2916C21.9719 10.7446 21.9719 11.1627 22.1461 11.5808C22.1461 11.6156 22.2158 11.6504 22.2158 11.6156H22.2506C22.7732 11.1627 22.7732 10.2568 22.7036 9.59484C22.6339 9.49031 22.6339 9.31611 22.599 9.17675C23.5397 9.55999 24.2017 10.431 24.2714 11.4762C24.3062 12.5214 23.5397 13.3925 22.4945 13.5318C21.8325 13.6015 21.1706 13.4621 20.5783 13.0789C20.2996 12.8699 20.1254 12.626 19.9512 12.3472C19.8815 12.2079 19.8118 12.0337 19.7421 11.8943C19.7073 11.7201 19.7073 11.5808 19.6724 11.4065C19.6376 11.2323 19.4634 11.2672 19.3937 11.3369C19.115 11.6156 18.9408 11.964 18.9408 12.3472C18.9059 12.8002 19.0105 13.2183 19.2543 13.6015C19.7421 14.3332 20.5086 14.8558 21.4145 14.9951C22.2855 15.2042 23.2262 14.9951 23.9927 14.5074C24.6546 14.0196 25.1772 13.3228 25.4211 12.5563C25.6999 11.8246 25.665 10.9885 25.3863 10.2568C25.0727 9.45547 24.5153 8.7935 23.8185 8.34057C23.2959 7.99217 22.7036 7.78312 22.0416 7.74828L21.9719 7.5044C21.728 6.80759 21.6235 6.07593 21.6235 5.30944C21.6932 4.43843 22.0764 3.70677 22.4248 2.90544C22.7732 2.03442 23.0868 0.989205 22.4945 0.0833493C22.4248 0.0136681 22.3552 -0.0211725 22.2855 0.0136681C22.3203 -0.0211725 22.2855 0.0485088 22.2855 0.11819C22.4597 1.30277 21.7977 2.31315 21.2054 3.28869C20.9267 3.74161 20.7525 4.22938 20.6131 4.71715C20.5086 5.20492 20.5086 5.72753 20.5783 6.25014C20.648 6.70307 20.7873 7.22567 20.8919 7.64376C20.2647 7.74828 19.6724 8.02701 19.1847 8.37541C18.453 8.93286 17.9304 9.7342 17.6517 10.6052C17.5123 11.0581 17.4426 11.4762 17.4426 11.9292C17.4426 12.1382 17.4775 12.3821 17.5123 12.5911C17.6168 12.8002 17.6865 13.0092 17.791 13.1834ZM32.5635 58.6156C32.5983 58.6156 32.6331 58.6156 32.5635 58.6156V58.6156ZM33.1557 57.7097C33.2254 57.8839 33.2254 58.0581 33.1906 58.2672C33.1209 58.511 32.877 58.6852 32.5983 58.6156C32.5286 58.6156 32.3893 58.5807 32.3196 58.5459C32.2499 58.511 32.1454 58.4762 32.1105 58.4065C32.006 58.3368 31.8666 58.2672 31.7273 58.1975L31.6576 58.1626C31.5879 58.1278 31.4834 58.093 31.4137 58.093C31.2395 58.0581 31.1001 58.0233 30.9259 57.9884C30.7517 57.9536 30.5775 57.9188 30.4033 57.8839H30.2988L30.0201 57.8491C29.6368 57.8142 29.2536 57.7794 28.8703 57.7794C28.2084 57.7794 27.5116 57.8491 26.8496 57.9188L26.6406 57.9536H26.5709L26.1876 58.0233C25.9089 58.0581 25.665 58.093 25.3863 58.1626C23.8533 58.4065 22.2855 58.6504 20.7525 58.8943C19.1847 59.1033 17.5472 59.3124 15.9793 59.0337C15.0735 58.8943 14.2025 58.5807 13.436 58.093C13.0527 57.8839 12.774 57.5355 12.5998 57.1174C12.4953 56.8387 12.4256 56.5251 12.6695 56.2812C12.7043 56.2464 12.7391 56.2464 12.7391 56.2812C12.7391 56.2812 12.7392 56.3161 12.774 56.3161C12.8437 56.8039 13.3314 57.0129 13.7495 57.1871C14.2025 57.3961 14.6902 57.5704 15.2128 57.64C16.0142 57.7794 16.8155 57.8142 17.6517 57.7446C19.2195 57.6749 20.7525 57.431 22.3203 57.0826C23.5746 56.8039 24.8288 56.4903 26.0831 56.2812C27.407 56.0722 28.8007 55.898 30.1246 56.0374C30.8563 56.107 31.5531 56.2812 32.215 56.6297C32.4938 56.769 32.7377 56.9432 32.9467 57.1871C32.9815 57.2219 33.1209 57.3961 33.0512 57.3613C32.9815 57.2916 33.1209 57.4658 33.1209 57.4658C33.0861 57.5704 33.1209 57.64 33.1557 57.7097ZM30.2988 57.8839C30.2291 57.8839 30.264 57.8839 30.2988 57.8839V57.8839ZM14.3767 56.6993C14.4463 56.769 14.516 56.8039 14.5857 56.769C14.6554 56.7342 14.6554 56.6993 14.6554 56.6297C14.6205 55.7586 14.4812 54.8528 14.2373 54.0166C14.0283 53.1456 13.7844 52.2397 13.5056 51.4036C12.9134 49.6964 12.0423 48.0589 10.9623 46.5607C10.6487 46.1426 10.2655 45.7594 9.88222 45.411C9.53381 45.0974 9.18541 44.749 8.837 44.4354C8.62796 44.2264 8.24471 44.2264 8.03567 44.4354C7.82662 44.6445 7.82662 45.0277 8.03567 45.2368C8.55828 45.8291 9.0112 46.491 9.42929 47.1878C9.84738 47.9195 10.37 48.5815 10.7881 49.348C11.6591 50.881 12.4604 52.4488 13.1921 54.0514C13.6102 54.8528 13.8889 55.8283 14.3767 56.6993ZM35.3507 44.1567C34.9675 44.4703 34.5842 44.7838 34.2358 45.1323C33.9222 45.4807 33.6435 45.8987 33.4345 46.3517C32.9815 47.2227 32.668 48.1982 32.4589 49.1738C32.215 50.2538 32.0757 51.3687 32.0757 52.4836C32.0757 53.0062 32.0757 53.5637 32.0757 54.0863C32.0757 54.6437 32.1105 55.2012 32.215 55.7238C32.2499 55.7935 32.3196 55.7935 32.3196 55.7238C32.4938 55.236 32.6331 54.7134 32.668 54.1908C32.7725 53.6682 32.877 53.1456 32.9815 52.623C33.1906 51.6126 33.4345 50.6022 33.7132 49.6267C33.9571 48.7557 34.2706 47.9195 34.6539 47.1182C35.072 46.282 35.4204 45.411 35.9081 44.6096C36.1172 44.2612 35.6643 43.9477 35.3507 44.1567ZM15.84 47.3969C16.049 48.2679 16.2929 49.1738 16.4323 50.0448C16.7458 51.8216 17.0245 53.5985 17.1639 55.4102C17.1987 55.6541 17.3729 55.8283 17.6168 55.7935C17.8259 55.7586 18.0001 55.5844 18.0001 55.4102C18.0698 54.4695 18.0349 53.5288 17.9304 52.5881C17.8259 51.6474 17.6168 50.7068 17.4078 49.7661C17.1987 48.8602 16.8852 47.9892 16.5368 47.153C16.3277 46.7001 16.1535 46.282 15.9445 45.8987C15.84 45.6897 15.7354 45.5155 15.6309 45.3065C15.4916 45.0974 15.4567 44.9929 15.3174 44.9581C15.2825 44.9581 15.2477 44.958 15.2477 44.9929C15.2128 45.1671 15.2128 45.3065 15.3174 45.4458C15.387 45.6549 15.4567 45.8987 15.5264 46.1426C15.6309 46.5259 15.7354 46.9788 15.84 47.3969ZM27.9297 54.4347C28.2084 54.1211 28.1735 53.703 28.2432 53.3198C28.3129 52.9017 28.4174 52.4836 28.4871 52.0655C28.6613 51.1945 28.8007 50.3583 28.94 49.4873C29.0794 48.686 29.1839 47.9195 29.393 47.153C29.4626 46.7698 29.602 46.3865 29.7065 46.0033C29.811 45.62 29.9156 45.1671 30.0549 44.749C30.264 44.1567 29.393 43.8432 29.0794 44.3309C28.8355 44.7142 28.6265 45.0974 28.4523 45.5155C28.3129 45.8639 28.2084 46.2472 28.1039 46.6304C27.8948 47.4666 27.7206 48.2679 27.6161 49.1389C27.4767 50.0099 27.3722 50.9158 27.3374 51.8565C27.3374 52.3094 27.3722 52.7623 27.407 53.2153C27.4419 53.5985 27.4419 54.0863 27.7206 54.365C27.7903 54.5044 27.8948 54.5044 27.9297 54.4347ZM22.8429 54.7483C22.8081 53.3546 22.7732 51.9262 22.6687 50.5674C22.5642 49.1738 22.4945 47.7453 22.1461 46.4214C22.1113 46.2472 21.9719 46.1775 21.8325 46.1775C21.6583 46.2123 21.5887 46.3517 21.5887 46.491C21.4841 47.8847 21.6235 49.2434 21.6583 50.6371C21.6932 52.0307 21.7977 53.3895 21.8674 54.7831C21.9371 55.3754 22.8778 55.3754 22.8429 54.7483ZM19.324 10.5704L21.2403 9.59484C20.0557 9.62968 19.324 10.5704 19.324 10.5704Z" fill="#E85668"/>
<path opacity="0.8" d="M81.3751 38.9305C81.0267 38.9305 80.748 39.0698 80.539 39.3485C79.9118 40.1847 79.1105 40.9164 78.2743 41.5435C77.5775 41.9616 76.8459 42.1706 76.0097 42.1706C75.1038 42.1706 74.2328 41.6829 73.8147 40.8815C73.327 39.9757 73.0482 38.4775 73.0482 36.4219C73.0482 35.5858 73.0482 34.7844 73.1179 33.9482C78.1001 32.032 80.6435 28.6176 80.6435 23.7051C80.7132 22.6251 80.3648 21.5102 79.7376 20.6391C79.1802 19.8726 78.3092 19.4197 77.4033 19.4894C75.9748 19.4894 74.6509 20.1862 73.7799 21.2663C72.6301 22.6251 71.6546 24.1929 71.0275 25.9001C70.261 27.886 69.7384 29.9416 69.39 32.0669C68.3099 32.2062 67.2647 32.3456 66.1846 32.3456L63.258 32.4849C63.6761 30.29 63.8852 28.0253 63.9548 25.7955C63.9548 23.949 63.6064 22.5902 62.9445 21.6844C62.178 20.7785 61.0979 20.3256 59.9482 20.3953C58.5197 20.3953 57.1609 20.8133 55.9067 21.545C54.6176 22.3115 53.5027 23.3219 52.6316 24.5413C52.2136 25.0987 51.9348 25.7607 51.8651 26.4575C51.8651 26.8059 51.9348 27.1543 52.1439 27.3982C52.2832 27.6073 52.562 27.7466 52.8407 27.8163C53.1891 27.8163 53.5375 27.6073 53.7465 27.3285C55.5234 24.9942 57.0216 23.8445 58.45 23.8445C58.8681 23.8445 59.2862 24.0535 59.5301 24.3322C59.8785 24.8897 60.0178 25.5517 59.9482 26.2485C59.8785 28.3738 59.5998 30.5687 59.1817 32.694L57.6138 32.7637C56.917 32.7637 56.3247 32.903 55.7673 33.3211C55.3492 33.6695 55.1402 34.227 55.2098 34.7496C55.1402 35.1677 55.3492 35.5858 55.6976 35.8296C56.1157 36.1084 56.6383 36.2477 57.1261 36.178L58.5545 36.1084C58.1365 38.0246 57.6138 40.2892 56.9867 43.0068C56.917 43.3552 56.8474 43.7036 56.8474 44.0869C56.8474 45.2366 57.4745 45.7941 58.7636 45.7941C59.9133 45.7941 60.7495 44.8882 61.1676 43.181C61.8644 40.2544 62.4567 37.7807 62.8051 35.7251C63.2232 35.7251 63.8852 35.6554 64.9304 35.5858C66.3588 35.4464 67.7873 35.307 69.2506 35.0283C69.1809 35.7251 69.1809 36.3871 69.1809 37.0839C69.1809 39.8712 69.7384 41.9964 70.8881 43.5294C71.9682 44.9579 73.6754 45.7941 75.4871 45.7941C77.682 45.7941 79.8073 44.5746 81.7932 42.1706C82.2113 41.6132 82.4204 41.0209 82.3507 40.3241C82.3507 39.9757 82.281 39.6273 82.1416 39.3834C81.7932 39.1395 81.5842 39.0001 81.3751 38.9305ZM77.3336 22.1024C77.6124 22.1024 77.8214 22.2418 77.9608 22.5205C78.1698 22.8689 78.2395 23.2173 78.1698 23.6006C78.2395 25.2381 77.8214 26.8756 77.0201 28.2344C76.1839 29.5235 74.9645 30.499 73.536 31.0216C73.745 29.5235 74.0935 28.0253 74.5464 26.4924C74.8948 25.3426 75.3826 24.2974 75.9052 23.287C76.4278 22.5205 76.9155 22.1024 77.3336 22.1024ZM83.4307 45.7592C84.9986 45.7592 86.2877 44.923 87.3329 43.2855C87.5419 43.9823 88.0297 44.6443 88.5523 45.1321C89.0401 45.5502 89.702 45.8289 90.3292 45.8289C91.2699 45.7592 92.2454 45.4108 93.0119 44.8185C93.9526 44.052 94.8585 43.181 95.6249 42.2055C96.043 41.648 96.2521 41.0557 96.1824 40.3589C96.1824 40.0105 96.1127 39.6621 95.9734 39.4182C95.834 39.2092 95.625 39.0698 95.3462 39.0698C94.9978 39.0698 94.7191 39.2092 94.51 39.4879C93.8132 40.3241 93.1513 41.1254 92.3151 41.8919C91.9667 42.31 91.4789 42.5887 90.9563 42.6584C90.7473 42.6584 90.5382 42.5887 90.3989 42.3797C90.2595 42.1706 90.1898 41.9616 90.1898 41.6829C90.2595 40.0454 90.5382 38.4775 90.8866 36.9097C91.0957 35.969 91.235 34.9238 91.3744 33.9134C91.3744 33.2166 90.8866 32.903 89.9459 32.903C89.5278 32.903 89.0401 32.9727 88.6568 33.0424C88.5871 32.694 88.4478 32.4153 88.3084 32.1365C88.0297 31.9275 87.751 31.8578 87.4026 31.8578C86.0438 31.8578 84.6502 32.3456 83.5004 33.1469C82.281 34.0528 81.2358 35.2025 80.5738 36.5613C79.8073 37.9201 79.4937 39.4879 79.4937 41.0906C79.4241 42.31 79.8422 43.6339 80.5738 44.5746C81.2358 45.2714 82.3158 45.7592 83.4307 45.7592ZM84.5108 42.7629C84.0927 42.7629 83.7443 42.6236 83.5004 42.3448C83.2217 41.9267 83.0823 41.439 83.152 40.9861C83.152 39.906 83.3611 38.8608 83.7791 37.8504C84.1275 36.9445 84.7198 36.1432 85.4863 35.4464C86.1135 34.8889 86.9148 34.5405 87.8207 34.5057L86.7406 39.9757C86.6012 40.7422 86.3225 41.4041 85.8347 42.0313C85.4863 42.4145 84.9986 42.6932 84.5108 42.7629ZM109.596 38.9305C109.248 38.9305 108.969 39.0698 108.76 39.3485C108.063 40.2544 107.331 40.9861 106.495 41.7525C105.938 42.1706 105.345 42.4494 104.649 42.4494C104.3 42.4494 103.952 42.3797 103.638 42.2403C104.265 41.4041 104.649 40.4634 104.997 39.4879C105.345 38.5472 105.485 37.4323 105.485 36.4219C105.555 35.2025 105.136 33.9482 104.474 32.9379C103.847 32.032 102.837 31.5791 101.722 31.5791C101.025 31.5791 100.363 31.7881 99.7361 32.1365C98.9696 32.6243 98.3774 33.2166 97.8896 33.9831C97.8896 33.774 97.8896 33.356 97.8896 32.903C97.8896 32.5546 97.8199 32.1365 97.5412 31.8927C97.2625 31.6836 96.914 31.6139 96.6353 31.6139C96.0082 31.6139 95.4159 31.7533 94.8585 32.1017C94.3707 32.3804 94.1616 32.9379 94.1616 33.4605C94.2313 34.6102 94.2313 36.5961 94.2313 39.4879C92.5938 42.2403 91.235 45.0276 90.1201 48.0239C89.284 50.2188 88.831 52.4834 88.7613 54.7829C88.6917 55.863 88.9704 57.0476 89.5278 57.9883C90.0853 58.7548 90.9563 59.2077 91.9318 59.138C93.7087 59.138 94.9978 57.8489 95.9734 55.3055C96.9837 52.2396 97.5412 48.9994 97.7502 45.7244C98.9697 45.7244 100.224 45.3063 101.304 44.6443C101.931 45.4108 102.872 45.7941 103.847 45.7244C104.997 45.7244 106.251 45.376 107.192 44.714C108.202 43.9475 109.178 43.1462 109.944 42.101C110.363 41.5435 110.572 40.9512 110.502 40.2544C110.502 39.906 110.432 39.5576 110.293 39.3137C110.153 39.1395 109.875 39.0001 109.596 38.9305ZM92.1757 56.2811C91.9667 56.2811 91.8273 56.072 91.6183 55.7933C91.4092 55.3055 91.3396 54.8526 91.4092 54.3648C91.4789 52.797 91.688 51.2989 92.1757 49.7659C92.7332 47.8497 93.3951 45.9334 94.2313 44.0869C94.1616 47.0135 93.9526 49.9052 93.5345 52.7622C93.1861 55.1313 92.7332 56.2811 92.1757 56.2811ZM97.8547 42.9023C97.8547 42.4145 97.8547 41.6829 97.8547 40.777C97.8547 39.0698 97.8547 37.8504 97.8547 36.9445C98.8651 35.4464 99.7013 34.6799 100.468 34.6799C100.816 34.6799 101.234 34.8193 101.408 35.1677C101.687 35.5858 101.827 36.0735 101.757 36.5265C101.757 37.4671 101.548 38.5124 101.199 39.3834C100.851 40.2892 100.363 41.0209 99.771 41.7177C99.2832 42.2752 98.5864 42.6932 97.8547 42.9023ZM123.985 39.0001C123.637 39.0001 123.358 39.1395 123.149 39.4182C122.452 40.3241 121.721 41.0557 120.884 41.8222C120.327 42.2403 119.735 42.519 119.038 42.519C118.689 42.519 118.341 42.4494 118.027 42.31C118.655 41.4738 119.038 40.5331 119.386 39.5576C119.735 38.5821 119.874 37.502 119.874 36.4916C119.944 35.2722 119.526 34.0179 118.864 33.0076C118.237 32.1017 117.226 31.6488 116.111 31.6488C115.414 31.6488 114.752 31.8578 114.125 32.2062C113.359 32.694 112.767 33.2166 112.279 33.9134C112.279 33.7044 112.279 33.2863 112.279 32.8334C112.279 32.4849 112.209 32.0669 111.93 31.823C111.652 31.6139 111.303 31.5442 111.025 31.5442C110.397 31.5442 109.805 31.6836 109.248 32.032C108.76 32.3107 108.551 32.8682 108.551 33.3908C108.62 34.5405 108.62 36.5265 108.62 39.4182C106.983 42.1706 105.624 44.9579 104.509 47.9542C103.673 50.1491 103.22 52.4138 103.151 54.7133C103.081 55.7933 103.36 56.9779 103.917 57.9186C104.474 58.6851 105.345 59.138 106.321 59.0683C108.098 59.0683 109.387 57.7792 110.363 55.2359C111.373 52.1699 111.93 48.9297 112.139 45.6547C113.359 45.6547 114.613 45.2366 115.693 44.5746C116.32 45.3411 117.261 45.7244 118.237 45.6547C119.386 45.6547 120.641 45.3063 121.581 44.6443C122.592 43.8778 123.567 43.0765 124.334 42.0313C124.752 41.4738 124.961 40.8815 124.891 40.1847C124.891 39.8363 124.821 39.4879 124.682 39.244C124.368 39.0698 124.194 38.9305 123.985 39.0001ZM106.46 56.2811C106.251 56.2811 106.112 56.072 105.903 55.7933C105.694 55.3055 105.624 54.8526 105.694 54.3648C105.764 52.797 105.973 51.2989 106.46 49.7659C107.018 47.8497 107.68 45.9334 108.516 44.0869C108.446 47.0135 108.237 49.9052 107.819 52.7622C107.506 55.1313 107.018 56.2811 106.46 56.2811ZM112.139 42.9023C112.139 42.4145 112.139 41.6829 112.139 40.777C112.139 39.0698 112.139 37.8504 112.139 36.9445C113.15 35.4464 113.986 34.6799 114.752 34.6799C115.101 34.6799 115.519 34.8193 115.693 35.1677C115.972 35.5858 116.111 36.0735 116.042 36.5265C116.042 37.4671 115.833 38.5124 115.484 39.3834C115.136 40.2892 114.718 41.0209 114.125 41.7177C113.568 42.2752 112.906 42.6932 112.139 42.9023ZM137.573 39.0001C137.294 39.0001 137.085 39.0698 136.876 39.2789C135.448 40.2196 133.95 41.2648 132.417 42.4145L133.183 37.6414C133.741 34.7147 133.95 33.0076 133.95 32.5198C133.95 32.3107 133.88 32.032 133.671 31.8927C133.392 31.7533 133.044 31.6836 132.73 31.6836C131.72 31.5442 130.675 32.2411 130.535 33.3211C130.535 33.3211 130.535 33.3211 130.535 33.3908C130.117 34.8889 129.629 36.3871 129.037 37.8504C128.689 38.7911 128.201 39.7666 127.609 40.6028C127.121 41.2299 126.772 41.5087 126.529 41.5087C126.11 41.5087 125.901 41.0906 125.901 40.4286C125.901 39.8015 125.971 39.2092 126.11 38.5821C126.25 37.8156 126.389 37.0839 126.529 36.2477C126.668 35.6206 126.807 35.0283 127.016 34.2618C127.156 33.7044 127.295 33.1818 127.365 32.6243C127.365 32.4153 127.295 32.1365 127.086 31.9972C126.807 31.8578 126.459 31.7881 126.18 31.7881C125.553 31.7185 125.03 31.8578 124.473 32.2062C124.055 32.5546 123.776 32.9727 123.637 33.4953C123.219 34.7844 122.87 36.1084 122.696 37.3975C122.487 38.7563 122.348 40.1499 122.417 41.5087C122.348 42.5887 122.696 43.7036 123.254 44.5746C123.741 45.3411 124.543 45.7941 125.449 45.7941C126.354 45.7244 127.156 45.376 127.713 44.714C128.549 43.7733 129.072 42.6584 129.351 41.439C129.142 42.7978 129.002 43.843 128.863 44.5746L128.793 45.2714C127.016 46.5605 125.379 48.0239 123.881 49.5917C122.94 50.5324 122.104 51.717 121.477 52.9364C121.059 53.8422 120.85 54.7829 120.85 55.7933C120.78 56.6992 121.128 57.5702 121.79 58.267C122.487 58.8941 123.358 59.2077 124.264 59.2077C126.18 59.2077 127.678 58.0579 128.898 55.6539C130.326 52.588 131.371 49.2781 131.824 45.9334L137.503 42.101C137.782 41.9616 138.061 41.6829 138.2 41.4041C138.34 41.0557 138.409 40.7073 138.409 40.3241C138.409 39.9757 138.34 39.6273 138.2 39.3834C138.13 39.2092 137.852 39.0001 137.573 39.0001ZM124.577 56.2114C124.299 56.2114 124.09 56.072 123.95 55.863C123.811 55.5843 123.741 55.3055 123.741 55.0268C123.811 54.0164 124.159 53.0409 124.752 52.2396C125.692 50.9505 126.807 49.6962 128.027 48.6858C127.609 50.6717 127.016 52.588 126.18 54.4345C125.623 55.6888 125.065 56.2114 124.577 56.2114ZM148.652 45.7592C150.081 45.7592 151.509 45.6199 152.973 45.3411C154.471 45.0624 155.969 44.5746 157.363 43.9823C158.652 43.4249 159.348 42.5539 159.348 41.2996C159.348 40.9512 159.279 40.6725 159.07 40.3589C158.93 40.1499 158.652 40.0105 158.373 40.0105C158.094 40.0105 157.885 40.0802 157.606 40.2196C156.178 40.8467 154.749 41.2996 153.216 41.7177C151.927 42.0661 150.603 42.2055 149.314 42.2055C146.701 42.2055 144.715 41.5087 143.426 40.2196C142.137 38.9305 141.44 37.0839 141.44 34.7496C141.371 32.694 141.789 30.7081 142.52 28.8615C143.148 27.3634 144.088 26.0743 145.377 25.0987C146.457 24.2626 147.781 23.8793 149.14 23.8096C151.056 23.8096 151.997 24.7155 151.997 26.562C151.997 27.0498 151.927 27.5027 151.788 27.9905C151.718 28.3389 151.718 28.6873 151.649 28.9312C151.649 29.3493 151.788 29.7674 152.136 30.0113C153.077 30.7081 154.471 30.499 155.133 29.4538C155.202 29.3841 155.202 29.3841 155.202 29.3144C155.69 28.4086 155.899 27.3982 155.83 26.3878C155.899 24.7503 155.272 23.1825 154.192 21.9979C153.112 20.9179 151.44 20.3604 149.349 20.3604C147.085 20.3604 144.89 20.9875 143.043 22.207C141.127 23.4961 139.559 25.3426 138.514 27.4679C137.364 29.9416 136.807 32.5198 136.876 35.2722C136.807 37.1884 137.294 39.1047 138.235 40.8118C139.176 42.3797 140.569 43.6688 142.277 44.505C144.437 45.4108 146.527 45.8289 148.652 45.7592ZM160.707 45.7592C162.275 45.7592 163.564 44.923 164.609 43.2855C164.818 43.9823 165.306 44.6443 165.829 45.1321C166.317 45.5502 166.979 45.8289 167.606 45.8289C168.546 45.7592 169.522 45.4108 170.288 44.8185C171.229 44.052 172.135 43.2507 172.901 42.2752C173.319 41.7177 173.529 41.1254 173.459 40.4286C173.459 40.0802 173.389 39.7318 173.25 39.4879C173.11 39.2789 172.901 39.1395 172.623 39.1395C172.274 39.1395 171.996 39.2789 171.787 39.5576C171.09 40.3938 170.428 41.1951 169.592 41.9616C169.243 42.3797 168.755 42.6584 168.233 42.7281C168.024 42.7281 167.815 42.6584 167.606 42.4494C167.466 42.2403 167.397 42.0313 167.397 41.7525C167.466 40.115 167.745 38.5472 168.093 36.9794C168.302 36.0387 168.442 34.9935 168.512 33.9831C168.512 33.2863 168.024 32.9727 167.083 32.9727C166.665 32.9727 166.177 33.0424 165.794 33.1121C165.724 32.7637 165.585 32.4849 165.446 32.2062C165.167 31.9972 164.888 31.9275 164.54 31.9275C163.181 31.9275 161.787 32.4153 160.638 33.2166C159.418 34.1225 158.373 35.2722 157.711 36.631C156.944 37.9898 156.631 39.5576 156.631 41.1603C156.561 42.3797 156.979 43.7036 157.711 44.6443C158.443 45.2714 159.523 45.7592 160.707 45.7592ZM161.787 42.7629C161.369 42.7629 161.021 42.6236 160.777 42.3448C160.498 41.9267 160.359 41.439 160.428 40.9861C160.428 39.906 160.638 38.8608 161.056 37.8504C161.404 36.9445 161.996 36.1432 162.763 35.4464C163.39 34.8889 164.191 34.5405 165.097 34.5057L164.017 39.9757C163.878 40.7422 163.599 41.4041 163.111 42.0313C162.763 42.4145 162.275 42.6932 161.787 42.7629ZM188.266 38.9305C187.918 38.9305 187.639 39.0698 187.43 39.3485C186.733 40.1847 186.001 40.9861 185.165 41.7525C184.678 42.1706 184.085 42.4494 183.388 42.4494C182.831 42.4494 182.378 42.31 181.96 41.9616C181.542 41.6132 181.263 41.1951 181.193 40.6725C182.343 40.115 183.319 39.3137 184.05 38.1988C184.608 37.2929 184.887 36.2826 184.887 35.2025C184.887 34.2967 184.608 33.4256 183.981 32.7288C183.354 32.032 182.483 31.7185 181.577 31.7185C180.497 31.7185 179.382 32.2759 178.162 33.4256C176.943 34.5754 175.828 36.3523 174.887 38.8259C174.887 37.7459 174.887 36.7007 174.957 35.6206C177.152 33.356 179.068 30.8474 180.706 28.095C181.786 26.1788 182.413 24.0535 182.483 21.8586C182.552 20.7785 182.204 19.7333 181.646 18.7926C181.159 18.0261 180.357 17.6428 179.451 17.6428C177.744 17.6428 176.316 18.7229 175.062 20.9875C173.703 23.6006 172.797 26.4575 172.309 29.3144C171.682 32.4501 171.368 35.6903 171.368 38.8956C171.368 40.7422 171.438 42.101 171.508 43.0068C171.577 43.7733 171.717 44.4353 172.135 45.0624C172.414 45.5502 172.971 45.8289 173.494 45.7592C173.981 45.8289 174.504 45.6199 174.852 45.2714C175.271 44.714 175.48 44.052 175.619 43.3552C175.967 42.0661 176.385 40.8118 176.908 39.5924C177.396 38.5124 177.988 37.5368 178.685 36.5961C179.312 35.8296 179.904 35.4464 180.462 35.4464C180.671 35.4464 180.88 35.5161 181.019 35.7251C181.159 35.9342 181.298 36.2826 181.228 36.5613C181.228 37.1187 181.019 37.711 180.671 38.1291C180.113 38.6866 179.521 39.0698 178.824 39.3485C178.058 39.5576 177.605 40.2544 177.675 40.9861C177.605 42.2752 178.093 43.5991 179.033 44.4701C180.044 45.376 181.368 45.8289 182.726 45.7592C183.876 45.7592 185.061 45.4108 185.932 44.8185C186.942 44.052 187.848 43.181 188.684 42.2055C189.102 41.648 189.311 41.0557 189.242 40.3589C189.242 40.0105 189.172 39.6621 189.033 39.4182C188.789 39.0698 188.545 38.9305 188.266 38.9305ZM178.685 20.6043C178.964 20.6043 179.173 20.7437 179.312 21.0921C179.451 21.5798 179.521 22.0328 179.521 22.5205C179.451 24.158 179.033 25.7259 178.302 27.1543C177.466 28.8615 176.455 30.4293 175.236 31.8578C175.445 29.9416 175.793 28.0253 176.246 26.1788C176.595 24.82 177.013 23.3915 177.535 22.0676C177.918 21.0921 178.337 20.6043 178.685 20.6043ZM197.29 39.8015C196.941 39.8015 196.663 40.0105 196.454 40.2196C195.896 40.9164 195.304 41.5783 194.607 42.1358C193.98 42.5539 193.318 42.7629 192.621 42.6932C191.611 42.7629 190.635 42.2055 190.217 41.3345C192.621 40.777 194.259 39.9757 195.199 39.0001C196.14 38.0943 196.698 36.8052 196.628 35.4464C196.698 34.436 196.279 33.3908 195.617 32.6591C194.851 31.9623 193.91 31.5791 192.865 31.6488C191.646 31.6488 190.391 31.9972 189.381 32.6591C188.371 33.3211 187.534 34.3663 186.977 35.4464C186.42 36.5961 186.071 37.9898 186.071 39.2789C186.001 40.9861 186.559 42.6236 187.639 43.9127C188.789 45.0624 190.426 45.6895 192.099 45.6199C193.179 45.6895 194.363 45.4108 195.304 44.923C196.21 44.4353 196.941 43.7733 197.499 42.9371C197.847 42.3797 198.056 41.7874 197.987 41.0906C197.987 40.7422 197.917 40.3938 197.778 40.1499C197.812 39.9408 197.569 39.8015 197.29 39.8015ZM192.412 34.6102C192.761 34.6102 193.039 34.7496 193.248 34.9586C193.457 35.2374 193.597 35.5161 193.597 35.8645C193.597 36.631 193.179 37.3626 192.586 37.7807C191.75 38.4078 190.879 38.7911 189.834 39.0001V38.9305C189.834 37.8504 190.043 36.8052 190.6 35.8645C190.914 35.1677 191.611 34.6799 192.412 34.6102Z" fill="#E85668"/>
</svg>
