<svg width="60" height="60" viewBox="0 0 60 60" fill="none" xmlns="http://www.w3.org/2000/svg">
<circle cx="30" cy="30" r="30" transform="rotate(180 30 30)" fill="#E85668"/>
<path d="M26.934 43.6562L39.6516 30.3745C39.875 30.1412 40 29.8283 40 29.5025C40 29.1767 39.875 28.8638 39.6516 28.6305L26.934 15.3438C26.83 15.235 26.7056 15.1485 26.5682 15.0895C26.4308 15.0304 26.2831 15 26.134 15C25.9848 15 25.8372 15.0304 25.6998 15.0895C25.5623 15.1485 25.4379 15.235 25.3339 15.3438C25.1198 15.5669 25 15.8664 25 16.1782C25 16.4901 25.1198 16.7896 25.3339 17.0127L37.2932 29.5025L25.3339 41.9898C25.1206 42.2128 25.0012 42.5117 25.0012 42.823C25.0012 43.1343 25.1206 43.4332 25.3339 43.6562C25.4379 43.765 25.5623 43.8515 25.6998 43.9105C25.8372 43.9696 25.9848 44 26.134 44C26.2831 44 26.4308 43.9696 26.5682 43.9105C26.7056 43.8515 26.83 43.765 26.934 43.6562Z" fill="white"/>
</svg>
