<svg width="60" height="60" viewBox="0 0 60 60" fill="none" xmlns="http://www.w3.org/2000/svg">
<circle cx="30" cy="30" r="30" fill="#E85668"/>
<path d="M33.066 16.3438L20.3484 29.6255C20.125 29.8588 20 30.1717 20 30.4975C20 30.8233 20.125 31.1362 20.3484 31.3695L33.066 44.6562C33.17 44.765 33.2944 44.8515 33.4318 44.9105C33.5692 44.9696 33.7169 45 33.866 45C34.0152 45 34.1628 44.9696 34.3002 44.9105C34.4377 44.8515 34.5621 44.765 34.6661 44.6562C34.8802 44.4331 35 44.1336 35 43.8218C35 43.5099 34.8802 43.2104 34.6661 42.9873L22.7068 30.4975L34.6661 18.0102C34.8794 17.7872 34.9988 17.4883 34.9988 17.177C34.9988 16.8657 34.8794 16.5668 34.6661 16.3438C34.5621 16.235 34.4377 16.1485 34.3002 16.0895C34.1628 16.0304 34.0152 16 33.866 16C33.7169 16 33.5692 16.0304 33.4318 16.0895C33.2944 16.1485 33.17 16.235 33.066 16.3438Z" fill="white"/>
</svg>
