<svg width="100" height="100" viewBox="0 0 100 100" fill="none" xmlns="http://www.w3.org/2000/svg">
<path d="M64.604 16.7893H70.1638V27.9275H64.604V16.7893Z" fill="#E6398A"/>
<path d="M67.3932 16.7893H70.1824V27.9275H67.3932V16.7893Z" fill="#FF489E"/>
<path d="M67.3931 25.1382C50.5278 25.1382 36.7864 38.8796 36.7864 55.745C36.7864 72.6103 50.5278 86.3517 67.3931 86.3517C84.2585 86.3517 97.9999 72.6103 97.9999 55.745C97.9999 38.8796 84.2585 25.1382 67.3931 25.1382Z" fill="#E6398A"/>
<path d="M98 55.7635C98 72.6289 84.2585 86.3703 67.3932 86.3703V25.1382C84.2585 25.1382 98 38.8982 98 55.7635Z" fill="#FF6AB1"/>
<path d="M67.3932 30.698C53.5959 30.698 42.3462 41.9478 42.3462 55.745C42.3462 69.5422 53.5959 80.792 67.3932 80.792C81.1904 80.792 92.4401 69.5422 92.4401 55.745C92.4401 41.9478 81.1904 30.698 67.3932 30.698Z" fill="#FCF2F7"/>
<path d="M92.4402 55.7636C92.4402 69.5608 81.1904 80.8105 67.3932 80.8105V30.698C81.1904 30.698 92.4402 41.9478 92.4402 55.7636Z" fill="#EBDCE2"/>
<path d="M3 52.9744H25.6297V58.5342H3V52.9744Z" fill="#EBDCE2"/>
<path d="M8.57837 36.2764H31.208V41.8362H8.57837V36.2764Z" fill="#EBDCE2"/>
<path d="M8.57837 69.6724H31.208V75.2322H8.57837V69.6724Z" fill="#EBDCE2"/>
<path d="M86.8804 52.9743V58.5341H64.604V36.2764H70.1638V52.9743H86.8804Z" fill="#645760"/>
<path d="M86.8804 52.9743V58.5341H67.3932V36.2764H70.1824V52.9743H86.8804Z" fill="#3F323A"/>
<path d="M59.0441 14H75.742V19.5598H59.0441V14Z" fill="#E6398A"/>
<path d="M67.3932 14H75.7422V19.5598H67.3932V14Z" fill="#FF6AB1"/>
</svg>
